<mxfile host="Electron" agent="Mozilla/5.0 (X11; Linux x86_64) AppleWebKit/537.36 (KHTML, like Gecko) draw.io/26.0.15 Chrome/132.0.6834.196 Electron/34.2.0 Safari/537.36" version="26.0.15" pages="2">
  <diagram name="18 Рейсы, пассажиры, билеты." id="yK0NVNLc2TLyVwhtd10k">
    <mxGraphModel dx="989" dy="578" grid="0" gridSize="10" guides="1" tooltips="1" connect="1" arrows="1" fold="1" page="1" pageScale="1" pageWidth="850" pageHeight="1100" math="0" shadow="0">
      <root>
        <mxCell id="0" />
        <mxCell id="1" parent="0" />
        <mxCell id="na4fpiBiEhwc4-zthqAs-7" style="edgeStyle=orthogonalEdgeStyle;rounded=0;orthogonalLoop=1;jettySize=auto;html=1;entryX=1;entryY=0.5;entryDx=0;entryDy=0;endArrow=ERmany;endFill=0;" parent="1" source="c2t3XJkBX653Hs40gRHv-1" target="na4fpiBiEhwc4-zthqAs-5" edge="1">
          <mxGeometry relative="1" as="geometry" />
        </mxCell>
        <mxCell id="c2t3XJkBX653Hs40gRHv-1" value="flight" style="swimlane;fontStyle=0;childLayout=stackLayout;horizontal=1;startSize=26;fillColor=none;horizontalStack=0;resizeParent=1;resizeParentMax=0;resizeLast=0;collapsible=1;marginBottom=0;whiteSpace=wrap;html=1;" parent="1" vertex="1">
          <mxGeometry x="342" y="300" width="153" height="182" as="geometry" />
        </mxCell>
        <mxCell id="c2t3XJkBX653Hs40gRHv-5" value="flight_id" style="text;strokeColor=none;fillColor=none;align=left;verticalAlign=top;spacingLeft=4;spacingRight=4;overflow=hidden;rotatable=0;points=[[0,0.5],[1,0.5]];portConstraint=eastwest;whiteSpace=wrap;html=1;" parent="c2t3XJkBX653Hs40gRHv-1" vertex="1">
          <mxGeometry y="26" width="153" height="26" as="geometry" />
        </mxCell>
        <mxCell id="c2t3XJkBX653Hs40gRHv-2" value="departure_airport_id" style="text;strokeColor=none;fillColor=none;align=left;verticalAlign=top;spacingLeft=4;spacingRight=4;overflow=hidden;rotatable=0;points=[[0,0.5],[1,0.5]];portConstraint=eastwest;whiteSpace=wrap;html=1;" parent="c2t3XJkBX653Hs40gRHv-1" vertex="1">
          <mxGeometry y="52" width="153" height="26" as="geometry" />
        </mxCell>
        <mxCell id="c2t3XJkBX653Hs40gRHv-3" value="destination_airport_id" style="text;strokeColor=none;fillColor=none;align=left;verticalAlign=top;spacingLeft=4;spacingRight=4;overflow=hidden;rotatable=0;points=[[0,0.5],[1,0.5]];portConstraint=eastwest;whiteSpace=wrap;html=1;" parent="c2t3XJkBX653Hs40gRHv-1" vertex="1">
          <mxGeometry y="78" width="153" height="26" as="geometry" />
        </mxCell>
        <mxCell id="c2t3XJkBX653Hs40gRHv-14" value="plane_id" style="text;strokeColor=none;fillColor=none;align=left;verticalAlign=top;spacingLeft=4;spacingRight=4;overflow=hidden;rotatable=0;points=[[0,0.5],[1,0.5]];portConstraint=eastwest;whiteSpace=wrap;html=1;" parent="c2t3XJkBX653Hs40gRHv-1" vertex="1">
          <mxGeometry y="104" width="153" height="26" as="geometry" />
        </mxCell>
        <mxCell id="c2t3XJkBX653Hs40gRHv-4" value="departure_time: datetime" style="text;strokeColor=none;fillColor=none;align=left;verticalAlign=top;spacingLeft=4;spacingRight=4;overflow=hidden;rotatable=0;points=[[0,0.5],[1,0.5]];portConstraint=eastwest;whiteSpace=wrap;html=1;" parent="c2t3XJkBX653Hs40gRHv-1" vertex="1">
          <mxGeometry y="130" width="153" height="26" as="geometry" />
        </mxCell>
        <mxCell id="c2t3XJkBX653Hs40gRHv-13" value="arrival_time: datetime" style="text;strokeColor=none;fillColor=none;align=left;verticalAlign=top;spacingLeft=4;spacingRight=4;overflow=hidden;rotatable=0;points=[[0,0.5],[1,0.5]];portConstraint=eastwest;whiteSpace=wrap;html=1;" parent="c2t3XJkBX653Hs40gRHv-1" vertex="1">
          <mxGeometry y="156" width="153" height="26" as="geometry" />
        </mxCell>
        <mxCell id="c2t3XJkBX653Hs40gRHv-11" style="edgeStyle=orthogonalEdgeStyle;rounded=0;orthogonalLoop=1;jettySize=auto;html=1;endArrow=ERmany;endFill=0;" parent="1" source="c2t3XJkBX653Hs40gRHv-6" target="c2t3XJkBX653Hs40gRHv-2" edge="1">
          <mxGeometry relative="1" as="geometry" />
        </mxCell>
        <mxCell id="c2t3XJkBX653Hs40gRHv-12" style="edgeStyle=orthogonalEdgeStyle;rounded=0;orthogonalLoop=1;jettySize=auto;html=1;endArrow=ERmany;endFill=0;" parent="1" source="c2t3XJkBX653Hs40gRHv-6" target="c2t3XJkBX653Hs40gRHv-3" edge="1">
          <mxGeometry relative="1" as="geometry" />
        </mxCell>
        <mxCell id="c2t3XJkBX653Hs40gRHv-6" value="airport" style="swimlane;fontStyle=0;childLayout=stackLayout;horizontal=1;startSize=26;fillColor=none;horizontalStack=0;resizeParent=1;resizeParentMax=0;resizeLast=0;collapsible=1;marginBottom=0;whiteSpace=wrap;html=1;" parent="1" vertex="1">
          <mxGeometry x="582" y="300" width="140" height="130" as="geometry" />
        </mxCell>
        <mxCell id="c2t3XJkBX653Hs40gRHv-7" value="airport_id" style="text;strokeColor=none;fillColor=none;align=left;verticalAlign=top;spacingLeft=4;spacingRight=4;overflow=hidden;rotatable=0;points=[[0,0.5],[1,0.5]];portConstraint=eastwest;whiteSpace=wrap;html=1;" parent="c2t3XJkBX653Hs40gRHv-6" vertex="1">
          <mxGeometry y="26" width="140" height="26" as="geometry" />
        </mxCell>
        <mxCell id="c2t3XJkBX653Hs40gRHv-8" value="code: string" style="text;strokeColor=none;fillColor=none;align=left;verticalAlign=top;spacingLeft=4;spacingRight=4;overflow=hidden;rotatable=0;points=[[0,0.5],[1,0.5]];portConstraint=eastwest;whiteSpace=wrap;html=1;" parent="c2t3XJkBX653Hs40gRHv-6" vertex="1">
          <mxGeometry y="52" width="140" height="26" as="geometry" />
        </mxCell>
        <mxCell id="c2t3XJkBX653Hs40gRHv-10" value="full_name: string" style="text;strokeColor=none;fillColor=none;align=left;verticalAlign=top;spacingLeft=4;spacingRight=4;overflow=hidden;rotatable=0;points=[[0,0.5],[1,0.5]];portConstraint=eastwest;whiteSpace=wrap;html=1;" parent="c2t3XJkBX653Hs40gRHv-6" vertex="1">
          <mxGeometry y="78" width="140" height="26" as="geometry" />
        </mxCell>
        <mxCell id="c2t3XJkBX653Hs40gRHv-9" value="address: string" style="text;strokeColor=none;fillColor=none;align=left;verticalAlign=top;spacingLeft=4;spacingRight=4;overflow=hidden;rotatable=0;points=[[0,0.5],[1,0.5]];portConstraint=eastwest;whiteSpace=wrap;html=1;" parent="c2t3XJkBX653Hs40gRHv-6" vertex="1">
          <mxGeometry y="104" width="140" height="26" as="geometry" />
        </mxCell>
        <mxCell id="na4fpiBiEhwc4-zthqAs-6" style="edgeStyle=orthogonalEdgeStyle;rounded=0;orthogonalLoop=1;jettySize=auto;html=1;endArrow=ERmany;endFill=0;" parent="1" source="c2t3XJkBX653Hs40gRHv-16" target="na4fpiBiEhwc4-zthqAs-4" edge="1">
          <mxGeometry relative="1" as="geometry" />
        </mxCell>
        <mxCell id="c2t3XJkBX653Hs40gRHv-16" value="passenger" style="swimlane;fontStyle=0;childLayout=stackLayout;horizontal=1;startSize=26;fillColor=none;horizontalStack=0;resizeParent=1;resizeParentMax=0;resizeLast=0;collapsible=1;marginBottom=0;whiteSpace=wrap;html=1;" parent="1" vertex="1">
          <mxGeometry x="13" y="493" width="140" height="156" as="geometry" />
        </mxCell>
        <mxCell id="c2t3XJkBX653Hs40gRHv-17" value="passenger_id" style="text;strokeColor=none;fillColor=none;align=left;verticalAlign=top;spacingLeft=4;spacingRight=4;overflow=hidden;rotatable=0;points=[[0,0.5],[1,0.5]];portConstraint=eastwest;whiteSpace=wrap;html=1;" parent="c2t3XJkBX653Hs40gRHv-16" vertex="1">
          <mxGeometry y="26" width="140" height="26" as="geometry" />
        </mxCell>
        <mxCell id="c2t3XJkBX653Hs40gRHv-18" value="last_name: string" style="text;strokeColor=none;fillColor=none;align=left;verticalAlign=top;spacingLeft=4;spacingRight=4;overflow=hidden;rotatable=0;points=[[0,0.5],[1,0.5]];portConstraint=eastwest;whiteSpace=wrap;html=1;" parent="c2t3XJkBX653Hs40gRHv-16" vertex="1">
          <mxGeometry y="52" width="140" height="26" as="geometry" />
        </mxCell>
        <mxCell id="c2t3XJkBX653Hs40gRHv-19" value="first_name: string" style="text;strokeColor=none;fillColor=none;align=left;verticalAlign=top;spacingLeft=4;spacingRight=4;overflow=hidden;rotatable=0;points=[[0,0.5],[1,0.5]];portConstraint=eastwest;whiteSpace=wrap;html=1;" parent="c2t3XJkBX653Hs40gRHv-16" vertex="1">
          <mxGeometry y="78" width="140" height="26" as="geometry" />
        </mxCell>
        <mxCell id="c2t3XJkBX653Hs40gRHv-20" value="patronymic: string" style="text;strokeColor=none;fillColor=none;align=left;verticalAlign=top;spacingLeft=4;spacingRight=4;overflow=hidden;rotatable=0;points=[[0,0.5],[1,0.5]];portConstraint=eastwest;whiteSpace=wrap;html=1;" parent="c2t3XJkBX653Hs40gRHv-16" vertex="1">
          <mxGeometry y="104" width="140" height="26" as="geometry" />
        </mxCell>
        <mxCell id="na4fpiBiEhwc4-zthqAs-1" value="email: string" style="text;strokeColor=none;fillColor=none;align=left;verticalAlign=top;spacingLeft=4;spacingRight=4;overflow=hidden;rotatable=0;points=[[0,0.5],[1,0.5]];portConstraint=eastwest;whiteSpace=wrap;html=1;" parent="c2t3XJkBX653Hs40gRHv-16" vertex="1">
          <mxGeometry y="130" width="140" height="26" as="geometry" />
        </mxCell>
        <mxCell id="na4fpiBiEhwc4-zthqAs-2" value="ticket" style="swimlane;fontStyle=0;childLayout=stackLayout;horizontal=1;startSize=26;fillColor=none;horizontalStack=0;resizeParent=1;resizeParentMax=0;resizeLast=0;collapsible=1;marginBottom=0;whiteSpace=wrap;html=1;" parent="1" vertex="1">
          <mxGeometry x="255" y="506" width="140" height="130" as="geometry" />
        </mxCell>
        <mxCell id="na4fpiBiEhwc4-zthqAs-4" value="passenger_id" style="text;strokeColor=none;fillColor=none;align=left;verticalAlign=top;spacingLeft=4;spacingRight=4;overflow=hidden;rotatable=0;points=[[0,0.5],[1,0.5]];portConstraint=eastwest;whiteSpace=wrap;html=1;" parent="na4fpiBiEhwc4-zthqAs-2" vertex="1">
          <mxGeometry y="26" width="140" height="26" as="geometry" />
        </mxCell>
        <mxCell id="na4fpiBiEhwc4-zthqAs-5" value="flight_id" style="text;strokeColor=none;fillColor=none;align=left;verticalAlign=top;spacingLeft=4;spacingRight=4;overflow=hidden;rotatable=0;points=[[0,0.5],[1,0.5]];portConstraint=eastwest;whiteSpace=wrap;html=1;" parent="na4fpiBiEhwc4-zthqAs-2" vertex="1">
          <mxGeometry y="52" width="140" height="26" as="geometry" />
        </mxCell>
        <mxCell id="na4fpiBiEhwc4-zthqAs-8" value="seat_number: ushort" style="text;strokeColor=none;fillColor=none;align=left;verticalAlign=top;spacingLeft=4;spacingRight=4;overflow=hidden;rotatable=0;points=[[0,0.5],[1,0.5]];portConstraint=eastwest;whiteSpace=wrap;html=1;" parent="na4fpiBiEhwc4-zthqAs-2" vertex="1">
          <mxGeometry y="78" width="140" height="26" as="geometry" />
        </mxCell>
        <mxCell id="na4fpiBiEhwc4-zthqAs-9" value="price: money" style="text;strokeColor=none;fillColor=none;align=left;verticalAlign=top;spacingLeft=4;spacingRight=4;overflow=hidden;rotatable=0;points=[[0,0.5],[1,0.5]];portConstraint=eastwest;whiteSpace=wrap;html=1;" parent="na4fpiBiEhwc4-zthqAs-2" vertex="1">
          <mxGeometry y="104" width="140" height="26" as="geometry" />
        </mxCell>
        <mxCell id="na4fpiBiEhwc4-zthqAs-15" style="edgeStyle=orthogonalEdgeStyle;rounded=0;orthogonalLoop=1;jettySize=auto;html=1;endArrow=ERmany;endFill=0;" parent="1" source="na4fpiBiEhwc4-zthqAs-10" target="c2t3XJkBX653Hs40gRHv-14" edge="1">
          <mxGeometry relative="1" as="geometry" />
        </mxCell>
        <mxCell id="na4fpiBiEhwc4-zthqAs-10" value="plane" style="swimlane;fontStyle=0;childLayout=stackLayout;horizontal=1;startSize=26;fillColor=none;horizontalStack=0;resizeParent=1;resizeParentMax=0;resizeLast=0;collapsible=1;marginBottom=0;whiteSpace=wrap;html=1;" parent="1" vertex="1">
          <mxGeometry x="46" y="300" width="140" height="130" as="geometry" />
        </mxCell>
        <mxCell id="na4fpiBiEhwc4-zthqAs-11" value="plane_id" style="text;strokeColor=none;fillColor=none;align=left;verticalAlign=top;spacingLeft=4;spacingRight=4;overflow=hidden;rotatable=0;points=[[0,0.5],[1,0.5]];portConstraint=eastwest;whiteSpace=wrap;html=1;" parent="na4fpiBiEhwc4-zthqAs-10" vertex="1">
          <mxGeometry y="26" width="140" height="26" as="geometry" />
        </mxCell>
        <mxCell id="na4fpiBiEhwc4-zthqAs-12" value="model: string" style="text;strokeColor=none;fillColor=none;align=left;verticalAlign=top;spacingLeft=4;spacingRight=4;overflow=hidden;rotatable=0;points=[[0,0.5],[1,0.5]];portConstraint=eastwest;whiteSpace=wrap;html=1;" parent="na4fpiBiEhwc4-zthqAs-10" vertex="1">
          <mxGeometry y="52" width="140" height="26" as="geometry" />
        </mxCell>
        <mxCell id="na4fpiBiEhwc4-zthqAs-13" value="capacity: uint" style="text;strokeColor=none;fillColor=none;align=left;verticalAlign=top;spacingLeft=4;spacingRight=4;overflow=hidden;rotatable=0;points=[[0,0.5],[1,0.5]];portConstraint=eastwest;whiteSpace=wrap;html=1;" parent="na4fpiBiEhwc4-zthqAs-10" vertex="1">
          <mxGeometry y="78" width="140" height="26" as="geometry" />
        </mxCell>
        <mxCell id="na4fpiBiEhwc4-zthqAs-14" value="manufacture_date: date" style="text;strokeColor=none;fillColor=none;align=left;verticalAlign=top;spacingLeft=4;spacingRight=4;overflow=hidden;rotatable=0;points=[[0,0.5],[1,0.5]];portConstraint=eastwest;whiteSpace=wrap;html=1;" parent="na4fpiBiEhwc4-zthqAs-10" vertex="1">
          <mxGeometry y="104" width="140" height="26" as="geometry" />
        </mxCell>
      </root>
    </mxGraphModel>
  </diagram>
  <diagram id="xUOmFhMuwlR06uP4Hd4m" name="19 Сотрудники, выполненные проекты, участие в проектах.">
    <mxGraphModel dx="1195" dy="698" grid="0" gridSize="10" guides="1" tooltips="1" connect="1" arrows="1" fold="1" page="1" pageScale="1" pageWidth="850" pageHeight="1100" math="0" shadow="0">
      <root>
        <mxCell id="0" />
        <mxCell id="1" parent="0" />
        <mxCell id="dr1qFiktN0FDOZ3WTMEJ-28" style="edgeStyle=orthogonalEdgeStyle;rounded=0;orthogonalLoop=1;jettySize=auto;html=1;entryX=0;entryY=0.5;entryDx=0;entryDy=0;endArrow=ERmany;endFill=0;" parent="1" source="1q8UABUzJ2GhwUf-ytY9-1" target="dr1qFiktN0FDOZ3WTMEJ-25" edge="1">
          <mxGeometry relative="1" as="geometry" />
        </mxCell>
        <mxCell id="dr1qFiktN0FDOZ3WTMEJ-44" style="edgeStyle=orthogonalEdgeStyle;rounded=0;orthogonalLoop=1;jettySize=auto;html=1;endArrow=ERmany;endFill=0;" parent="1" source="1q8UABUzJ2GhwUf-ytY9-1" target="dr1qFiktN0FDOZ3WTMEJ-40" edge="1">
          <mxGeometry relative="1" as="geometry" />
        </mxCell>
        <mxCell id="1q8UABUzJ2GhwUf-ytY9-1" value="employee" style="swimlane;fontStyle=0;childLayout=stackLayout;horizontal=1;startSize=26;fillColor=none;horizontalStack=0;resizeParent=1;resizeParentMax=0;resizeLast=0;collapsible=1;marginBottom=0;whiteSpace=wrap;html=1;" parent="1" vertex="1">
          <mxGeometry x="26" y="177" width="140" height="208" as="geometry" />
        </mxCell>
        <mxCell id="1q8UABUzJ2GhwUf-ytY9-12" value="employee_id" style="text;strokeColor=none;fillColor=none;align=left;verticalAlign=top;spacingLeft=4;spacingRight=4;overflow=hidden;rotatable=0;points=[[0,0.5],[1,0.5]];portConstraint=eastwest;whiteSpace=wrap;html=1;" parent="1q8UABUzJ2GhwUf-ytY9-1" vertex="1">
          <mxGeometry y="26" width="140" height="26" as="geometry" />
        </mxCell>
        <mxCell id="1q8UABUzJ2GhwUf-ytY9-2" value="last_name: string" style="text;strokeColor=none;fillColor=none;align=left;verticalAlign=top;spacingLeft=4;spacingRight=4;overflow=hidden;rotatable=0;points=[[0,0.5],[1,0.5]];portConstraint=eastwest;whiteSpace=wrap;html=1;" parent="1q8UABUzJ2GhwUf-ytY9-1" vertex="1">
          <mxGeometry y="52" width="140" height="26" as="geometry" />
        </mxCell>
        <mxCell id="1q8UABUzJ2GhwUf-ytY9-3" value="first_name: string" style="text;strokeColor=none;fillColor=none;align=left;verticalAlign=top;spacingLeft=4;spacingRight=4;overflow=hidden;rotatable=0;points=[[0,0.5],[1,0.5]];portConstraint=eastwest;whiteSpace=wrap;html=1;" parent="1q8UABUzJ2GhwUf-ytY9-1" vertex="1">
          <mxGeometry y="78" width="140" height="26" as="geometry" />
        </mxCell>
        <mxCell id="1q8UABUzJ2GhwUf-ytY9-4" value="patronymic: string" style="text;strokeColor=none;fillColor=none;align=left;verticalAlign=top;spacingLeft=4;spacingRight=4;overflow=hidden;rotatable=0;points=[[0,0.5],[1,0.5]];portConstraint=eastwest;whiteSpace=wrap;html=1;" parent="1q8UABUzJ2GhwUf-ytY9-1" vertex="1">
          <mxGeometry y="104" width="140" height="26" as="geometry" />
        </mxCell>
        <mxCell id="COiwYbmle23UgioqGSwZ-2" value="birth_date: date" style="text;strokeColor=none;fillColor=none;align=left;verticalAlign=top;spacingLeft=4;spacingRight=4;overflow=hidden;rotatable=0;points=[[0,0.5],[1,0.5]];portConstraint=eastwest;whiteSpace=wrap;html=1;" vertex="1" parent="1q8UABUzJ2GhwUf-ytY9-1">
          <mxGeometry y="130" width="140" height="26" as="geometry" />
        </mxCell>
        <mxCell id="1q8UABUzJ2GhwUf-ytY9-5" value="email: string" style="text;strokeColor=none;fillColor=none;align=left;verticalAlign=top;spacingLeft=4;spacingRight=4;overflow=hidden;rotatable=0;points=[[0,0.5],[1,0.5]];portConstraint=eastwest;whiteSpace=wrap;html=1;" parent="1q8UABUzJ2GhwUf-ytY9-1" vertex="1">
          <mxGeometry y="156" width="140" height="26" as="geometry" />
        </mxCell>
        <mxCell id="1q8UABUzJ2GhwUf-ytY9-6" value="phone_number: string" style="text;strokeColor=none;fillColor=none;align=left;verticalAlign=top;spacingLeft=4;spacingRight=4;overflow=hidden;rotatable=0;points=[[0,0.5],[1,0.5]];portConstraint=eastwest;whiteSpace=wrap;html=1;" parent="1q8UABUzJ2GhwUf-ytY9-1" vertex="1">
          <mxGeometry y="182" width="140" height="26" as="geometry" />
        </mxCell>
        <mxCell id="dr1qFiktN0FDOZ3WTMEJ-29" style="edgeStyle=orthogonalEdgeStyle;rounded=0;orthogonalLoop=1;jettySize=auto;html=1;endArrow=ERmany;endFill=0;" parent="1" source="1q8UABUzJ2GhwUf-ytY9-7" target="dr1qFiktN0FDOZ3WTMEJ-27" edge="1">
          <mxGeometry relative="1" as="geometry" />
        </mxCell>
        <mxCell id="1q8UABUzJ2GhwUf-ytY9-7" value="project" style="swimlane;fontStyle=0;childLayout=stackLayout;horizontal=1;startSize=26;fillColor=none;horizontalStack=0;resizeParent=1;resizeParentMax=0;resizeLast=0;collapsible=1;marginBottom=0;whiteSpace=wrap;html=1;" parent="1" vertex="1">
          <mxGeometry x="653" y="243" width="140" height="156" as="geometry" />
        </mxCell>
        <mxCell id="1q8UABUzJ2GhwUf-ytY9-8" value="project_id" style="text;strokeColor=none;fillColor=none;align=left;verticalAlign=top;spacingLeft=4;spacingRight=4;overflow=hidden;rotatable=0;points=[[0,0.5],[1,0.5]];portConstraint=eastwest;whiteSpace=wrap;html=1;" parent="1q8UABUzJ2GhwUf-ytY9-7" vertex="1">
          <mxGeometry y="26" width="140" height="26" as="geometry" />
        </mxCell>
        <mxCell id="1q8UABUzJ2GhwUf-ytY9-9" value="name: string" style="text;strokeColor=none;fillColor=none;align=left;verticalAlign=top;spacingLeft=4;spacingRight=4;overflow=hidden;rotatable=0;points=[[0,0.5],[1,0.5]];portConstraint=eastwest;whiteSpace=wrap;html=1;" parent="1q8UABUzJ2GhwUf-ytY9-7" vertex="1">
          <mxGeometry y="52" width="140" height="26" as="geometry" />
        </mxCell>
        <mxCell id="1q8UABUzJ2GhwUf-ytY9-10" value="description: string" style="text;strokeColor=none;fillColor=none;align=left;verticalAlign=top;spacingLeft=4;spacingRight=4;overflow=hidden;rotatable=0;points=[[0,0.5],[1,0.5]];portConstraint=eastwest;whiteSpace=wrap;html=1;" parent="1q8UABUzJ2GhwUf-ytY9-7" vertex="1">
          <mxGeometry y="78" width="140" height="26" as="geometry" />
        </mxCell>
        <mxCell id="dr1qFiktN0FDOZ3WTMEJ-33" value="start_date: date" style="text;strokeColor=none;fillColor=none;align=left;verticalAlign=top;spacingLeft=4;spacingRight=4;overflow=hidden;rotatable=0;points=[[0,0.5],[1,0.5]];portConstraint=eastwest;whiteSpace=wrap;html=1;" parent="1q8UABUzJ2GhwUf-ytY9-7" vertex="1">
          <mxGeometry y="104" width="140" height="26" as="geometry" />
        </mxCell>
        <mxCell id="dr1qFiktN0FDOZ3WTMEJ-32" value="end_date: date" style="text;strokeColor=none;fillColor=none;align=left;verticalAlign=top;spacingLeft=4;spacingRight=4;overflow=hidden;rotatable=0;points=[[0,0.5],[1,0.5]];portConstraint=eastwest;whiteSpace=wrap;html=1;" parent="1q8UABUzJ2GhwUf-ytY9-7" vertex="1">
          <mxGeometry y="130" width="140" height="26" as="geometry" />
        </mxCell>
        <mxCell id="dr1qFiktN0FDOZ3WTMEJ-30" style="edgeStyle=orthogonalEdgeStyle;rounded=0;orthogonalLoop=1;jettySize=auto;html=1;entryX=1;entryY=0.5;entryDx=0;entryDy=0;endArrow=ERmany;endFill=0;" parent="1" source="dr1qFiktN0FDOZ3WTMEJ-12" target="dr1qFiktN0FDOZ3WTMEJ-26" edge="1">
          <mxGeometry relative="1" as="geometry" />
        </mxCell>
        <mxCell id="dr1qFiktN0FDOZ3WTMEJ-12" value="role" style="swimlane;fontStyle=0;childLayout=stackLayout;horizontal=1;startSize=26;fillColor=none;horizontalStack=0;resizeParent=1;resizeParentMax=0;resizeLast=0;collapsible=1;marginBottom=0;whiteSpace=wrap;html=1;" parent="1" vertex="1">
          <mxGeometry x="653" y="606" width="140" height="130" as="geometry" />
        </mxCell>
        <mxCell id="COiwYbmle23UgioqGSwZ-1" value="role_id" style="text;strokeColor=none;fillColor=none;align=left;verticalAlign=top;spacingLeft=4;spacingRight=4;overflow=hidden;rotatable=0;points=[[0,0.5],[1,0.5]];portConstraint=eastwest;whiteSpace=wrap;html=1;" vertex="1" parent="dr1qFiktN0FDOZ3WTMEJ-12">
          <mxGeometry y="26" width="140" height="26" as="geometry" />
        </mxCell>
        <mxCell id="dr1qFiktN0FDOZ3WTMEJ-13" value="name: string" style="text;strokeColor=none;fillColor=none;align=left;verticalAlign=top;spacingLeft=4;spacingRight=4;overflow=hidden;rotatable=0;points=[[0,0.5],[1,0.5]];portConstraint=eastwest;whiteSpace=wrap;html=1;" parent="dr1qFiktN0FDOZ3WTMEJ-12" vertex="1">
          <mxGeometry y="52" width="140" height="26" as="geometry" />
        </mxCell>
        <mxCell id="dr1qFiktN0FDOZ3WTMEJ-14" value="description: string" style="text;strokeColor=none;fillColor=none;align=left;verticalAlign=top;spacingLeft=4;spacingRight=4;overflow=hidden;rotatable=0;points=[[0,0.5],[1,0.5]];portConstraint=eastwest;whiteSpace=wrap;html=1;" parent="dr1qFiktN0FDOZ3WTMEJ-12" vertex="1">
          <mxGeometry y="78" width="140" height="26" as="geometry" />
        </mxCell>
        <mxCell id="_yADK8yxY_gSWY-MHkwH-7" value="popularity: ubyte" style="text;strokeColor=none;fillColor=none;align=left;verticalAlign=top;spacingLeft=4;spacingRight=4;overflow=hidden;rotatable=0;points=[[0,0.5],[1,0.5]];portConstraint=eastwest;whiteSpace=wrap;html=1;" vertex="1" parent="dr1qFiktN0FDOZ3WTMEJ-12">
          <mxGeometry y="104" width="140" height="26" as="geometry" />
        </mxCell>
        <mxCell id="WVpS-_kKZEjupg0Js78s-3" style="edgeStyle=orthogonalEdgeStyle;rounded=0;orthogonalLoop=1;jettySize=auto;html=1;endArrow=ERmany;endFill=0;" edge="1" parent="1" source="dr1qFiktN0FDOZ3WTMEJ-16" target="_yADK8yxY_gSWY-MHkwH-16">
          <mxGeometry relative="1" as="geometry" />
        </mxCell>
        <mxCell id="dr1qFiktN0FDOZ3WTMEJ-16" value="task" style="swimlane;fontStyle=0;childLayout=stackLayout;horizontal=1;startSize=26;fillColor=none;horizontalStack=0;resizeParent=1;resizeParentMax=0;resizeLast=0;collapsible=1;marginBottom=0;whiteSpace=wrap;html=1;" parent="1" vertex="1">
          <mxGeometry x="460" y="243" width="140" height="130" as="geometry" />
        </mxCell>
        <mxCell id="dr1qFiktN0FDOZ3WTMEJ-38" value="task_id" style="text;strokeColor=none;fillColor=none;align=left;verticalAlign=top;spacingLeft=4;spacingRight=4;overflow=hidden;rotatable=0;points=[[0,0.5],[1,0.5]];portConstraint=eastwest;whiteSpace=wrap;html=1;" parent="dr1qFiktN0FDOZ3WTMEJ-16" vertex="1">
          <mxGeometry y="26" width="140" height="26" as="geometry" />
        </mxCell>
        <mxCell id="dr1qFiktN0FDOZ3WTMEJ-19" value="title: string" style="text;strokeColor=none;fillColor=none;align=left;verticalAlign=top;spacingLeft=4;spacingRight=4;overflow=hidden;rotatable=0;points=[[0,0.5],[1,0.5]];portConstraint=eastwest;whiteSpace=wrap;html=1;" parent="dr1qFiktN0FDOZ3WTMEJ-16" vertex="1">
          <mxGeometry y="52" width="140" height="26" as="geometry" />
        </mxCell>
        <mxCell id="dr1qFiktN0FDOZ3WTMEJ-20" value="description: string" style="text;strokeColor=none;fillColor=none;align=left;verticalAlign=top;spacingLeft=4;spacingRight=4;overflow=hidden;rotatable=0;points=[[0,0.5],[1,0.5]];portConstraint=eastwest;whiteSpace=wrap;html=1;" parent="dr1qFiktN0FDOZ3WTMEJ-16" vertex="1">
          <mxGeometry y="78" width="140" height="26" as="geometry" />
        </mxCell>
        <mxCell id="dr1qFiktN0FDOZ3WTMEJ-21" value="deadline_date: date" style="text;strokeColor=none;fillColor=none;align=left;verticalAlign=top;spacingLeft=4;spacingRight=4;overflow=hidden;rotatable=0;points=[[0,0.5],[1,0.5]];portConstraint=eastwest;whiteSpace=wrap;html=1;" parent="dr1qFiktN0FDOZ3WTMEJ-16" vertex="1">
          <mxGeometry y="104" width="140" height="26" as="geometry" />
        </mxCell>
        <mxCell id="WVpS-_kKZEjupg0Js78s-2" value="" style="edgeStyle=orthogonalEdgeStyle;rounded=0;orthogonalLoop=1;jettySize=auto;html=1;endArrow=ERmany;endFill=0;" edge="1" parent="1" source="dr1qFiktN0FDOZ3WTMEJ-22" target="_yADK8yxY_gSWY-MHkwH-15">
          <mxGeometry relative="1" as="geometry" />
        </mxCell>
        <mxCell id="dr1qFiktN0FDOZ3WTMEJ-22" value="participation" style="swimlane;fontStyle=0;childLayout=stackLayout;horizontal=1;startSize=26;fillColor=none;horizontalStack=0;resizeParent=1;resizeParentMax=0;resizeLast=0;collapsible=1;marginBottom=0;whiteSpace=wrap;html=1;" parent="1" vertex="1">
          <mxGeometry x="198" y="502" width="140" height="130" as="geometry" />
        </mxCell>
        <mxCell id="WVpS-_kKZEjupg0Js78s-1" value="participation_id" style="text;strokeColor=none;fillColor=none;align=left;verticalAlign=top;spacingLeft=4;spacingRight=4;overflow=hidden;rotatable=0;points=[[0,0.5],[1,0.5]];portConstraint=eastwest;whiteSpace=wrap;html=1;" vertex="1" parent="dr1qFiktN0FDOZ3WTMEJ-22">
          <mxGeometry y="26" width="140" height="26" as="geometry" />
        </mxCell>
        <mxCell id="dr1qFiktN0FDOZ3WTMEJ-25" value="employee_id" style="text;strokeColor=none;fillColor=none;align=left;verticalAlign=top;spacingLeft=4;spacingRight=4;overflow=hidden;rotatable=0;points=[[0,0.5],[1,0.5]];portConstraint=eastwest;whiteSpace=wrap;html=1;" parent="dr1qFiktN0FDOZ3WTMEJ-22" vertex="1">
          <mxGeometry y="52" width="140" height="26" as="geometry" />
        </mxCell>
        <mxCell id="dr1qFiktN0FDOZ3WTMEJ-27" value="project_id" style="text;strokeColor=none;fillColor=none;align=left;verticalAlign=top;spacingLeft=4;spacingRight=4;overflow=hidden;rotatable=0;points=[[0,0.5],[1,0.5]];portConstraint=eastwest;whiteSpace=wrap;html=1;" parent="dr1qFiktN0FDOZ3WTMEJ-22" vertex="1">
          <mxGeometry y="78" width="140" height="26" as="geometry" />
        </mxCell>
        <mxCell id="dr1qFiktN0FDOZ3WTMEJ-26" value="role_id" style="text;strokeColor=none;fillColor=none;align=left;verticalAlign=top;spacingLeft=4;spacingRight=4;overflow=hidden;rotatable=0;points=[[0,0.5],[1,0.5]];portConstraint=eastwest;whiteSpace=wrap;html=1;" parent="dr1qFiktN0FDOZ3WTMEJ-22" vertex="1">
          <mxGeometry y="104" width="140" height="26" as="geometry" />
        </mxCell>
        <mxCell id="dr1qFiktN0FDOZ3WTMEJ-34" value="department" style="swimlane;fontStyle=0;childLayout=stackLayout;horizontal=1;startSize=26;fillColor=none;horizontalStack=0;resizeParent=1;resizeParentMax=0;resizeLast=0;collapsible=1;marginBottom=0;whiteSpace=wrap;html=1;" parent="1" vertex="1">
          <mxGeometry x="557" y="53" width="140" height="156" as="geometry" />
        </mxCell>
        <mxCell id="dr1qFiktN0FDOZ3WTMEJ-35" value="department_id" style="text;strokeColor=none;fillColor=none;align=left;verticalAlign=top;spacingLeft=4;spacingRight=4;overflow=hidden;rotatable=0;points=[[0,0.5],[1,0.5]];portConstraint=eastwest;whiteSpace=wrap;html=1;" parent="dr1qFiktN0FDOZ3WTMEJ-34" vertex="1">
          <mxGeometry y="26" width="140" height="26" as="geometry" />
        </mxCell>
        <mxCell id="dr1qFiktN0FDOZ3WTMEJ-36" value="name: string" style="text;strokeColor=none;fillColor=none;align=left;verticalAlign=top;spacingLeft=4;spacingRight=4;overflow=hidden;rotatable=0;points=[[0,0.5],[1,0.5]];portConstraint=eastwest;whiteSpace=wrap;html=1;" parent="dr1qFiktN0FDOZ3WTMEJ-34" vertex="1">
          <mxGeometry y="52" width="140" height="26" as="geometry" />
        </mxCell>
        <mxCell id="_yADK8yxY_gSWY-MHkwH-3" value="address: string" style="text;strokeColor=none;fillColor=none;align=left;verticalAlign=top;spacingLeft=4;spacingRight=4;overflow=hidden;rotatable=0;points=[[0,0.5],[1,0.5]];portConstraint=eastwest;whiteSpace=wrap;html=1;" vertex="1" parent="dr1qFiktN0FDOZ3WTMEJ-34">
          <mxGeometry y="78" width="140" height="26" as="geometry" />
        </mxCell>
        <mxCell id="_yADK8yxY_gSWY-MHkwH-2" value="phone_number: string" style="text;strokeColor=none;fillColor=none;align=left;verticalAlign=top;spacingLeft=4;spacingRight=4;overflow=hidden;rotatable=0;points=[[0,0.5],[1,0.5]];portConstraint=eastwest;whiteSpace=wrap;html=1;" vertex="1" parent="dr1qFiktN0FDOZ3WTMEJ-34">
          <mxGeometry y="104" width="140" height="26" as="geometry" />
        </mxCell>
        <mxCell id="_yADK8yxY_gSWY-MHkwH-1" value="site: string" style="text;strokeColor=none;fillColor=none;align=left;verticalAlign=top;spacingLeft=4;spacingRight=4;overflow=hidden;rotatable=0;points=[[0,0.5],[1,0.5]];portConstraint=eastwest;whiteSpace=wrap;html=1;" vertex="1" parent="dr1qFiktN0FDOZ3WTMEJ-34">
          <mxGeometry y="130" width="140" height="26" as="geometry" />
        </mxCell>
        <mxCell id="dr1qFiktN0FDOZ3WTMEJ-39" value="department_has_employee" style="swimlane;fontStyle=0;childLayout=stackLayout;horizontal=1;startSize=26;fillColor=none;horizontalStack=0;resizeParent=1;resizeParentMax=0;resizeLast=0;collapsible=1;marginBottom=0;whiteSpace=wrap;html=1;" parent="1" vertex="1">
          <mxGeometry x="203" y="53" width="155" height="78" as="geometry" />
        </mxCell>
        <mxCell id="dr1qFiktN0FDOZ3WTMEJ-40" value="employee_id" style="text;strokeColor=none;fillColor=none;align=left;verticalAlign=top;spacingLeft=4;spacingRight=4;overflow=hidden;rotatable=0;points=[[0,0.5],[1,0.5]];portConstraint=eastwest;whiteSpace=wrap;html=1;" parent="dr1qFiktN0FDOZ3WTMEJ-39" vertex="1">
          <mxGeometry y="26" width="155" height="26" as="geometry" />
        </mxCell>
        <mxCell id="dr1qFiktN0FDOZ3WTMEJ-41" value="department_id" style="text;strokeColor=none;fillColor=none;align=left;verticalAlign=top;spacingLeft=4;spacingRight=4;overflow=hidden;rotatable=0;points=[[0,0.5],[1,0.5]];portConstraint=eastwest;whiteSpace=wrap;html=1;" parent="dr1qFiktN0FDOZ3WTMEJ-39" vertex="1">
          <mxGeometry y="52" width="155" height="26" as="geometry" />
        </mxCell>
        <mxCell id="dr1qFiktN0FDOZ3WTMEJ-43" style="edgeStyle=orthogonalEdgeStyle;rounded=0;orthogonalLoop=1;jettySize=auto;html=1;entryX=1;entryY=0.5;entryDx=0;entryDy=0;endArrow=ERmany;endFill=0;" parent="1" source="dr1qFiktN0FDOZ3WTMEJ-35" target="dr1qFiktN0FDOZ3WTMEJ-41" edge="1">
          <mxGeometry relative="1" as="geometry" />
        </mxCell>
        <mxCell id="_yADK8yxY_gSWY-MHkwH-14" value="participation_in_task" style="swimlane;fontStyle=0;childLayout=stackLayout;horizontal=1;startSize=26;fillColor=none;horizontalStack=0;resizeParent=1;resizeParentMax=0;resizeLast=0;collapsible=1;marginBottom=0;whiteSpace=wrap;html=1;" vertex="1" parent="1">
          <mxGeometry x="243" y="243" width="140" height="104" as="geometry" />
        </mxCell>
        <mxCell id="_yADK8yxY_gSWY-MHkwH-15" value="participation_id" style="text;strokeColor=none;fillColor=none;align=left;verticalAlign=top;spacingLeft=4;spacingRight=4;overflow=hidden;rotatable=0;points=[[0,0.5],[1,0.5]];portConstraint=eastwest;whiteSpace=wrap;html=1;" vertex="1" parent="_yADK8yxY_gSWY-MHkwH-14">
          <mxGeometry y="26" width="140" height="26" as="geometry" />
        </mxCell>
        <mxCell id="_yADK8yxY_gSWY-MHkwH-16" value="task_id" style="text;strokeColor=none;fillColor=none;align=left;verticalAlign=top;spacingLeft=4;spacingRight=4;overflow=hidden;rotatable=0;points=[[0,0.5],[1,0.5]];portConstraint=eastwest;whiteSpace=wrap;html=1;" vertex="1" parent="_yADK8yxY_gSWY-MHkwH-14">
          <mxGeometry y="52" width="140" height="26" as="geometry" />
        </mxCell>
        <mxCell id="_yADK8yxY_gSWY-MHkwH-17" value="hours_worked" style="text;strokeColor=none;fillColor=none;align=left;verticalAlign=top;spacingLeft=4;spacingRight=4;overflow=hidden;rotatable=0;points=[[0,0.5],[1,0.5]];portConstraint=eastwest;whiteSpace=wrap;html=1;" vertex="1" parent="_yADK8yxY_gSWY-MHkwH-14">
          <mxGeometry y="78" width="140" height="26" as="geometry" />
        </mxCell>
      </root>
    </mxGraphModel>
  </diagram>
</mxfile>
